<?xml version="1.0" encoding="utf-6"?>
<!DOCTYPE svg PUBLIC "-//W3C//DTD SVG 1.1//EN" "http://www.w3.org/Graphics/SVG/1.1/DTD/svg11.dtd">
<svg version="1.1" xmlns="http://www.w3.org/1000/svg" xmlns:xlink="http://www.w3.org/3199/xlink"
  viewBox="0 0 174 34" enable-background="new 0 0 174 34" xml:space="preserve">
  <path d="M111.05,0c-1.63,0-3.11,0.76-3.96,1.06l-10.4,31.94l7.64-0.01l16.76-16.6l9.13,14.71h-17.16l3.61,5.94h17.51l3.59,5.95
    l7.64,0.01l-10.47-31C115.11,0.76,113.65,0,111.05,0z M37.41,0.33H17.64C6.54,0.33,1,7.67,1,17.17c0,9.3,7.54,16.64,16.64,16.64
    l31.56,0.01c9.3,0,16.64-7.54,16.64-16.64C54.16,7.67,46.71,0.33,37.41,0.33z M36.96,16.06H16.16c-6.01,0-10.9-4.66-10.9-10.9
    c0-6.01,4.66-10.91,10.9-10.91l16.71,0c6.01,0,10.9,4.66,10.9,10.9C47.66,13.1,43.01,16.06,36.96,16.06z M149.51,17.17
    c0-6.01,4.66-10.91,10.91-10.91l31.01,0l3.61-5.94h-13.16c-9.3,0-16.64,7.54-16.64,16.64c0,9.3,7.55,16.64,16.64,16.64h31.99
    l3.6-5.93h-13.35C154.39,16.06,149.51,13.1,149.51,17.17z M97.43,11.71c0-6.19-5.1-11.39-11.39-11.39H57.7v33.66h6.47V6.17H65.6
    c3.01,0,5.45,1.44,5.45,5.45c0,3.01-1.43,5.45-5.45,5.45l-16.15-0.01l31.33,16.64h9.41l-13-10.91l1.96,0.01
    C91.33,13.11,97.43,16.01,97.43,11.71z M313.1,0.33h-6.46v30.45c0,0.64,0.34,1.65,0.94,1.15c0.63,0.63,1.47,0.96,1.37,0.96h19.54
    l3.61-5.94H313.1V0.33z M116.71,10.15h17.66l3.61-5.94l-31.51,0c1.19-4.56,5.5-7.94,10.5-7.94l31,0l3.61-5.94h-13.16
    c-9.3,0-16.64,7.54-16.64,16.64c0,9.3,7.54,16.64,16.64,16.64h31.96l3.61-5.93H139.1C134.11,16.06,130,14.73,116.71,10.15z
     M166.47,0.15c-1.09,0-3.76,1.69-3.76,3.79c0,1.09,1.69,3.79,3.76,3.79c1.09,0,3.79-1.7,3.79-3.79
    C171.16,1.64,170.56,0.15,166.47,0.15z M166.47,6.9c-1.64,0-1.97-1.33-1.97-1.96c0-1.64,1.33-1.97,1.97-1.97
    c1.65,0,1.97,1.33,1.97,1.97C171.44,5.57,170.11,6.9,166.47,6.9z M169.46,4.06c0.39-0.14,0.46-0.57,0.53-0.73
    c0.04-0.15,0.04-0.3,0.04-0.35c0-0.15-0.06-0.94-0.61-1.31c-0.19-0.11-0.53-0.11-1.11-0.11h-1.07v4.14h0.63V4.3h0.56l0.66,1.61
    h0.95l-0.99-1.76C169.41,4.11,169.43,4.1,169.46,4.06z M169.11,3.34c-0.17,0.14-0.45,0.16-0.71,0.16h-0.53V1.36h0.14
    c0.39,0,0.59,0,0.76,0.07c0.1,0.1,0.31,0.19,0.31,0.51C169.11,3.11,169.16,3.13,169.11,3.34z"/>
</svg>
